<svg width="216" height="73" viewBox="0 0 216 73" fill="none" xmlns="http://www.w3.org/2000/svg">
<g clip-path="url(#clip0_29_1014)">
<path d="M118 13.3693C118 12.2489 117.088 11.3371 115.968 11.3371C115.735 11.3371 115.514 11.3845 115.305 11.457L112.27 7.66281C112.464 7.35188 112.581 6.98811 112.581 6.59521C112.581 5.47478 111.669 4.56299 110.549 4.56299C109.979 4.56299 109.465 4.80008 109.096 5.17807L103.756 2.71366C103.762 2.65269 103.774 2.59376 103.774 2.53076C103.774 1.41033 102.863 0.498535 101.742 0.498535C100.86 0.498535 100.115 1.06688 99.8347 1.85335H92.1339C91.8534 1.06688 91.1083 0.498535 90.2263 0.498535C89.1059 0.498535 88.1941 1.41033 88.1941 2.53076C88.1941 2.61476 88.209 2.69537 88.2191 2.77734L84.8592 4.45731C84.4934 4.10506 83.9989 3.88558 83.4522 3.88558C82.3318 3.88558 81.42 4.79737 81.42 5.9178C81.42 6.3107 81.5372 6.67447 81.7309 6.9854L78.6955 10.7796C78.4868 10.7071 78.266 10.6597 78.033 10.6597C76.9125 10.6597 76.0007 11.5715 76.0007 12.6919C76.0007 13.5739 76.5691 14.319 77.3555 14.5995V18.9139C76.5691 19.1937 76.0007 19.9388 76.0007 20.8208C76.0007 21.9412 76.9125 22.853 78.033 22.853C78.7856 22.853 79.4359 22.4371 79.7874 21.8281L83.4854 22.5001C83.6419 23.4661 84.4751 24.2078 85.4845 24.2078C85.5115 24.2078 85.5373 24.2011 85.5644 24.1997L86.8569 27.4316C86.4342 27.8042 86.1619 28.3434 86.1619 28.9497C86.1619 30.0701 87.0737 30.9819 88.1941 30.9819C88.8756 30.9819 89.4764 30.6419 89.8449 30.1263L95.6584 31.7874C95.7106 32.6124 96.2525 33.3 97.0004 33.5669V38.5587C96.2139 38.8392 95.6456 39.5843 95.6456 40.4663C95.6456 41.5867 96.5574 42.4985 97.6778 42.4985C98.7982 42.4985 99.71 41.5867 99.71 40.4663C99.71 39.5843 99.1417 38.8392 98.3552 38.5587V33.5669C99.1417 33.2865 99.71 32.5413 99.71 31.6593C99.71 31.0104 99.3984 30.438 98.9236 30.0654L99.7324 27.6382L105.811 29.6644C105.827 30.5294 106.387 31.2576 107.162 31.534V38.5581C106.375 38.8385 105.807 39.5836 105.807 40.4656C105.807 41.5861 106.718 42.4979 107.839 42.4979C108.959 42.4979 109.871 41.5861 109.871 40.4656C109.871 39.5836 109.303 38.8385 108.516 38.5581V31.5347C109.303 31.2542 109.871 30.5091 109.871 29.6271C109.871 29.3798 109.82 29.1455 109.739 28.926L114.937 24.5946C115.24 24.7748 115.59 24.8852 115.968 24.8852C117.088 24.8852 118 23.9734 118 22.853C118 21.971 117.432 21.2259 116.645 20.9454V15.2762C117.432 14.9964 118 14.2513 118 13.3693ZM110.549 5.9178C110.922 5.9178 111.226 6.22128 111.226 6.59521C111.226 6.96914 110.922 7.27262 110.549 7.27262C110.175 7.27262 109.871 6.96914 109.871 6.59521C109.871 6.22128 110.175 5.9178 110.549 5.9178ZM109.585 8.37341C109.873 8.53057 110.198 8.62744 110.549 8.62744C110.782 8.62744 111.002 8.58002 111.21 8.50753L114.246 12.3024C114.053 12.6133 113.936 12.9764 113.936 13.3693C113.936 13.4784 113.951 13.5834 113.968 13.6884L109.169 16.3059L105.675 13.3937C105.756 13.1735 105.807 12.9391 105.807 12.6919C105.807 12.4169 105.75 12.154 105.651 11.9149L109.585 8.37341ZM101.065 19.466C100.752 19.466 100.459 19.5425 100.194 19.6699L97.3242 16.7997L102.391 14.172C102.755 14.5121 103.239 14.7241 103.774 14.7241C104.152 14.7241 104.502 14.6137 104.805 14.4335L107.89 17.0036L102.414 19.9903C102.055 19.6678 101.585 19.466 101.065 19.466ZM101.742 21.4982C101.742 21.8721 101.438 22.1756 101.065 22.1756C100.692 22.1756 100.387 21.8721 100.387 21.4982C100.387 21.1243 100.692 20.8208 101.065 20.8208C101.438 20.8208 101.742 21.1243 101.742 21.4982ZM91.5005 14.0379L92.6379 17.7027L86.8677 20.6948C86.6259 20.4692 86.3299 20.3053 86.0006 20.2179L85.0617 13.0184L89.7034 12.786C89.998 13.5 90.689 14.0054 91.5005 14.0379ZM90.9037 12.0145C90.9037 11.6405 91.2079 11.3371 91.5811 11.3371C91.9544 11.3371 92.2585 11.6405 92.2585 12.0145C92.2585 12.3884 91.9544 12.6919 91.5811 12.6919C91.2079 12.6919 90.9037 12.3884 90.9037 12.0145ZM93.045 19.0182L94.7629 24.5547L87.5126 22.1377C87.5113 22.0564 87.4991 21.9778 87.4882 21.8992L93.045 19.0182ZM93.0403 14.4321L95.0576 16.4488L93.8593 17.07L93.0403 14.4321ZM93.4101 12.8849C93.5368 12.6201 93.6134 12.3274 93.6134 12.0145C93.6134 11.7259 93.551 11.4522 93.4426 11.2036L96.659 8.20135L101.844 12.0897C101.784 12.2821 101.742 12.4812 101.742 12.6919C101.742 12.7867 101.758 12.8768 101.77 12.9683L96.3189 15.7944L93.4101 12.8849ZM103.097 12.6919C103.097 12.318 103.401 12.0145 103.774 12.0145C104.148 12.0145 104.452 12.318 104.452 12.6919C104.452 13.0658 104.148 13.3693 103.774 13.3693C103.401 13.3693 103.097 13.0658 103.097 12.6919ZM109.009 17.9364L113.863 21.9812L103.346 21.0254L109.009 17.9364ZM101.742 1.85335C102.116 1.85335 102.42 2.15683 102.42 2.53076C102.42 2.90469 102.116 3.20817 101.742 3.20817C101.369 3.20817 101.065 2.90469 101.065 2.53076C101.065 2.15683 101.369 1.85335 101.742 1.85335ZM100.811 4.32657C101.091 4.47221 101.405 4.56299 101.742 4.56299C102.312 4.56299 102.825 4.32589 103.195 3.94722L108.535 6.41163C108.529 6.47328 108.516 6.53221 108.516 6.59521C108.516 6.87092 108.573 7.13307 108.672 7.37288L104.738 10.9137C104.45 10.7565 104.125 10.6597 103.774 10.6597C103.359 10.6597 102.972 10.7863 102.649 11.0018L97.6649 7.26314L100.811 4.32657ZM99.8347 3.20817C99.8509 3.2522 99.8624 3.29826 99.8807 3.34094L96.5635 6.4367L92.2585 3.20817H99.8347ZM90.2263 1.85335C90.5996 1.85335 90.9037 2.15683 90.9037 2.53076C90.9037 2.90469 90.5996 3.20817 90.2263 3.20817C89.8531 3.20817 89.5489 2.90469 89.5489 2.53076C89.5489 2.15683 89.8531 1.85335 90.2263 1.85335ZM85.4845 5.9178C85.4845 5.8338 85.4695 5.75319 85.4594 5.6719L88.8193 3.99193C89.1851 4.34351 89.6796 4.56299 90.2263 4.56299C90.6422 4.56299 91.029 4.43631 91.3515 4.22089L95.5575 7.37559L92.5119 10.218C92.2321 10.0723 91.9185 9.98225 91.5811 9.98225C90.6639 9.98225 89.8957 10.5967 89.6437 11.4326L84.8856 11.6704L84.3708 7.72039C85.0286 7.38371 85.4845 6.70631 85.4845 5.9178ZM83.4522 5.24039C83.8255 5.24039 84.1296 5.54387 84.1296 5.9178C84.1296 6.29173 83.8255 6.59521 83.4522 6.59521C83.079 6.59521 82.7748 6.29173 82.7748 5.9178C82.7748 5.54387 83.079 5.24039 83.4522 5.24039ZM82.7897 7.83013C82.8683 7.85722 82.9455 7.88635 83.0275 7.90396L83.5274 11.7388L79.9107 11.9196C79.8681 11.816 79.8132 11.7191 79.7543 11.6243L82.7897 7.83013ZM78.033 12.0145C78.4062 12.0145 78.7104 12.318 78.7104 12.6919C78.7104 13.0658 78.4062 13.3693 78.033 13.3693C77.6597 13.3693 77.3555 13.0658 77.3555 12.6919C77.3555 12.318 77.6597 12.0145 78.033 12.0145ZM78.033 21.4982C77.6597 21.4982 77.3555 21.1947 77.3555 20.8208C77.3555 20.4469 77.6597 20.1434 78.033 20.1434C78.4062 20.1434 78.7104 20.4469 78.7104 20.8208C78.7104 21.1947 78.4062 21.4982 78.033 21.4982ZM83.73 21.1683L80.0327 20.4963C79.9128 19.7586 79.3979 19.1584 78.7104 18.9132V14.5988C79.3153 14.3827 79.7841 13.8916 79.9703 13.2731L83.7042 13.0861L84.6485 20.3276C84.2597 20.5044 83.942 20.8005 83.73 21.1683ZM85.4845 22.853C85.1112 22.853 84.807 22.5495 84.807 22.1756C84.807 21.8017 85.1112 21.4982 85.4845 21.4982C85.8577 21.4982 86.1619 21.8017 86.1619 22.1756C86.1619 22.5495 85.8577 22.853 85.4845 22.853ZM88.1941 29.6271C87.8208 29.6271 87.5167 29.3236 87.5167 28.9497C87.5167 28.5758 87.8208 28.2723 88.1941 28.2723C88.5673 28.2723 88.8715 28.5758 88.8715 28.9497C88.8715 29.3236 88.5673 29.6271 88.1941 29.6271ZM96.0276 30.4827L90.2141 28.8217C90.1457 27.7615 89.2712 26.9175 88.1941 26.9175C88.167 26.9175 88.1412 26.9242 88.1142 26.9256L86.8217 23.6937C86.9158 23.6104 87.0012 23.5196 87.0791 23.4207L95.2581 26.1473L96.4659 30.0383C96.2986 30.1643 96.1496 30.3126 96.0276 30.4827ZM97.6778 41.143C97.3046 41.143 97.0004 40.8396 97.0004 40.4656C97.0004 40.0917 97.3046 39.7882 97.6778 39.7882C98.0511 39.7882 98.3552 40.0917 98.3552 40.4656C98.3552 40.8396 98.0511 41.143 97.6778 41.143ZM97.6778 32.3367C97.3046 32.3367 97.0004 32.0333 97.0004 31.6593C97.0004 31.2854 97.3046 30.9819 97.6778 30.9819C98.0511 30.9819 98.3552 31.2854 98.3552 31.6593C98.3552 32.0333 98.0511 32.3367 97.6778 32.3367ZM97.7008 29.4483L96.8398 26.675L98.4467 27.2108L97.7008 29.4483ZM98.8755 25.9251L96.346 25.0817L94.2677 18.3848L96.0629 17.4541L99.2365 20.6277C99.1092 20.8926 99.0326 21.1852 99.0326 21.4982C99.0326 22.1472 99.3442 22.7202 99.8198 23.0921L98.8755 25.9251ZM107.839 41.143C107.466 41.143 107.162 40.8396 107.162 40.4656C107.162 40.0917 107.466 39.7882 107.839 39.7882C108.212 39.7882 108.516 40.0917 108.516 40.4656C108.516 40.8396 108.212 41.143 107.839 41.143ZM107.839 30.3045C107.466 30.3045 107.162 30.001 107.162 29.6271C107.162 29.2532 107.466 28.9497 107.839 28.9497C108.212 28.9497 108.516 29.2532 108.516 29.6271C108.516 30.001 108.212 30.3045 107.839 30.3045ZM108.87 27.8848C108.566 27.7053 108.217 27.5949 107.839 27.5949C107.19 27.5949 106.617 27.9065 106.245 28.382L100.161 26.3539L101.103 23.5264C101.903 23.5115 102.588 23.0318 102.905 22.3456L114.005 23.3543C114.023 23.422 114.043 23.4884 114.068 23.5535L108.87 27.8848ZM110.289 17.238L114.618 14.8765C114.813 15.0513 115.04 15.1868 115.291 15.2762V20.9454C115.166 20.9901 115.049 21.045 114.937 21.1114L110.289 17.238ZM115.968 23.5304C115.595 23.5304 115.29 23.2269 115.29 22.853C115.29 22.4791 115.595 22.1756 115.968 22.1756C116.341 22.1756 116.645 22.4791 116.645 22.853C116.645 23.2269 116.341 23.5304 115.968 23.5304ZM115.968 14.0467C115.595 14.0467 115.29 13.7432 115.29 13.3693C115.29 12.9954 115.595 12.6919 115.968 12.6919C116.341 12.6919 116.645 12.9954 116.645 13.3693C116.645 13.7432 116.341 14.0467 115.968 14.0467Z" fill="white"/>
<path d="M78.71 0.498535H77.3552V1.85335H78.71V0.498535Z" fill="white"/>
<path d="M78.71 3.20818H77.3552V4.56299H78.71V3.20818Z" fill="white"/>
<path d="M80.0648 1.85335H78.71V3.20816H80.0648V1.85335Z" fill="white"/>
<path d="M77.3553 1.85335H76.0005V3.20816H77.3553V1.85335Z" fill="white"/>
<path d="M112.58 31.6593H111.226V33.0141H112.58V31.6593Z" fill="white"/>
<path d="M112.58 34.369H111.226V35.7238H112.58V34.369Z" fill="white"/>
<path d="M113.935 33.0141H112.58V34.369H113.935V33.0141Z" fill="white"/>
<path d="M111.226 33.0141H109.871V34.369H111.226V33.0141Z" fill="white"/>
<path d="M116.645 3.20818H115.29V4.56299H116.645V3.20818Z" fill="white"/>
<path d="M116.645 5.9178H115.29V7.27262H116.645V5.9178Z" fill="white"/>
<path d="M118 4.56299H116.645V5.91781H118V4.56299Z" fill="white"/>
<path d="M115.29 4.56299H113.935V5.91781H115.29V4.56299Z" fill="white"/>
<path d="M85.4842 33.0141H84.1294V34.369H85.4842V33.0141Z" fill="white"/>
<path d="M85.4842 35.7238H84.1294V37.0786H85.4842V35.7238Z" fill="white"/>
<path d="M86.8389 34.369H85.4841V35.7238H86.8389V34.369Z" fill="white"/>
<path d="M84.1292 34.369H82.7744V35.7238H84.1292V34.369Z" fill="white"/>
<path d="M81.4198 25.5626H80.0649V26.9175H81.4198V25.5626Z" fill="white"/>
<path d="M81.4198 28.2723H80.0649V29.6271H81.4198V28.2723Z" fill="white"/>
<path d="M82.7745 26.9175H81.4197V28.2723H82.7745V26.9175Z" fill="white"/>
<path d="M80.0648 26.9175H78.71V28.2723H80.0648V26.9175Z" fill="white"/>
</g>
<path d="M1.8 49.5015H12.82V53.0815H11.78L11 50.3615H5.88V56.3415H9.74L10.28 54.6015H11.02V58.7415H10.28L9.74 57.2215H5.88V63.6415H11.36L12.14 60.9415H13.2V64.5015H1.8V63.7615L3.78 63.3015V50.7215L1.8 50.2415V49.5015ZM14.6039 54.8015H19.6839V55.5415L18.4639 55.7815L20.4239 58.6215L22.7239 55.7615L21.3039 55.5415V54.8015H25.3839V55.5415L23.9439 55.8015L20.9439 59.2215L24.0639 63.4215L25.6039 63.7415V64.5015H20.5239V63.7415L21.8039 63.4215L19.7439 60.4415L17.4239 63.4615L18.8239 63.7415V64.5015H14.6239V63.7415L16.1639 63.4215L19.1639 59.8415L16.1839 55.8015L14.6039 55.5415V54.8015ZM37.0314 64.5015H33.5114V62.4815C32.8847 63.9481 31.7847 64.6815 30.2114 64.6815C29.1581 64.6815 28.3581 64.4548 27.8114 64.0015C27.2647 63.5348 26.9914 62.8881 26.9914 62.0615C26.9914 60.8881 27.5047 60.0481 28.5314 59.5415C29.5714 59.0215 31.2181 58.7415 33.4714 58.7015V57.8415C33.4714 56.8948 33.2781 56.2548 32.8914 55.9215C32.5047 55.5748 31.9314 55.4015 31.1714 55.4015C30.4114 55.4015 29.7514 55.5748 29.1914 55.9215L28.5314 57.9015H27.7914V55.6415C28.1247 55.3615 28.5847 55.1281 29.1714 54.9415C29.7581 54.7415 30.3981 54.6415 31.0914 54.6415C32.5047 54.6415 33.5647 54.9148 34.2714 55.4615C34.9914 55.9948 35.3514 56.9481 35.3514 58.3215V63.3015L37.0314 63.7615V64.5015ZM30.7314 63.8415C31.5847 63.8415 32.2514 63.5148 32.7314 62.8615C33.2247 62.1948 33.4714 61.0415 33.4714 59.4015C31.1781 59.4015 29.7781 59.7548 29.2714 60.4615C29.0314 60.7948 28.9114 61.2881 28.9114 61.9415C28.9114 62.5948 29.0514 63.0748 29.3314 63.3815C29.6247 63.6881 30.0914 63.8415 30.7314 63.8415ZM38.992 54.8015H42.232V57.4015C42.832 55.5615 44.0387 54.6415 45.852 54.6415C46.6787 54.6415 47.3387 54.8348 47.832 55.2215C48.3254 55.6081 48.672 56.2548 48.872 57.1615C49.472 55.4815 50.6054 54.6415 52.272 54.6415C53.2454 54.6415 54.0054 54.9281 54.552 55.5015C55.112 56.0615 55.392 56.8881 55.392 57.9815V63.3615L57.072 63.7615V64.5015H52.072V63.7615L53.512 63.3215V58.4815C53.512 57.3881 53.3654 56.6415 53.072 56.2415C52.7787 55.8281 52.3387 55.6215 51.752 55.6215C49.8587 55.6215 48.912 57.3681 48.912 60.8615V63.3415L50.612 63.7615V64.5015H45.532V63.7615L47.012 63.3415V58.8015C47.012 57.6415 46.8854 56.8215 46.632 56.3415C46.3787 55.8481 45.952 55.6015 45.352 55.6015C44.752 55.6015 44.2587 55.7548 43.872 56.0615C43.4854 56.3548 43.192 56.7548 42.992 57.2615C42.6054 58.1948 42.412 59.3215 42.412 60.6415V63.3215L43.972 63.7615V64.5015H38.932V63.7615L40.512 63.3415V55.7815L38.992 55.5215V54.8015ZM73.5123 58.0215H79.6923V58.7615L77.7123 59.2215V63.7815C77.0323 64.0881 76.159 64.3281 75.0923 64.5015C74.0257 64.6748 73.0457 64.7615 72.1523 64.7615C69.819 64.7615 68.019 64.0748 66.7523 62.7015C65.4857 61.3281 64.8523 59.4481 64.8523 57.0615C64.8523 54.6748 65.4723 52.7681 66.7123 51.3415C67.9523 49.9015 69.7057 49.1815 71.9723 49.1815C72.8923 49.1815 73.8457 49.3081 74.8323 49.5615C75.819 49.8015 76.6323 50.2215 77.2723 50.8215V54.2015H76.2323L75.2523 50.8815C74.6657 50.2548 73.559 49.9415 71.9323 49.9415C70.3057 49.9415 69.1057 50.5481 68.3323 51.7615C67.559 52.9748 67.1723 54.6881 67.1723 56.9015C67.1723 61.6081 68.819 63.9615 72.1123 63.9615C73.1523 63.9615 74.319 63.8015 75.6123 63.4815V59.2215L73.5123 58.7615V58.0215ZM89.3475 61.1215V63.4015C88.5875 64.2681 87.3608 64.7015 85.6675 64.7015C83.9875 64.7015 82.7408 64.2615 81.9275 63.3815C81.1142 62.4881 80.7075 61.2548 80.7075 59.6815C80.7075 58.1081 81.1342 56.8748 81.9875 55.9815C82.8542 55.0748 84.0142 54.6215 85.4675 54.6215C86.3342 54.6215 87.0542 54.7815 87.6275 55.1015C88.2142 55.4215 88.6342 55.8481 88.8875 56.3815C89.2875 57.2615 89.4875 58.1881 89.4875 59.1615H82.7075C82.7075 60.6681 82.8808 61.8148 83.2275 62.6015C83.6275 63.4948 84.4142 63.9415 85.5875 63.9415C86.0008 63.9415 86.3942 63.8881 86.7675 63.7815C87.1542 63.6615 87.4342 63.5481 87.6075 63.4415C87.7808 63.3348 87.8675 63.2681 87.8675 63.2415L88.6075 61.1215H89.3475ZM85.4275 55.4015C84.2942 55.4015 83.5208 55.9215 83.1075 56.9615C82.9075 57.4281 82.7875 57.9415 82.7475 58.5015H87.7475C87.7475 56.4348 86.9742 55.4015 85.4275 55.4015ZM91.9031 54.8015H95.2231V57.6415C95.4898 56.8415 95.9031 56.1748 96.4631 55.6415C97.0231 55.0948 97.7031 54.8215 98.5031 54.8215C98.9965 54.8215 99.5898 55.0015 100.283 55.3615V57.7615H99.5031L98.8831 56.1215C98.6298 55.9881 98.3431 55.9215 98.0231 55.9215C97.4365 55.9215 96.8431 56.2681 96.2431 56.9615C95.6565 57.6415 95.3631 58.3748 95.3631 59.1615V63.3415L96.8431 63.7615V64.5015H91.9431V63.7615L93.4631 63.3415V55.8015L91.9031 55.5215V54.8015ZM101.531 54.8015H104.771V57.4015C105.371 55.5615 106.578 54.6415 108.391 54.6415C109.218 54.6415 109.878 54.8348 110.371 55.2215C110.864 55.6081 111.211 56.2548 111.411 57.1615C112.011 55.4815 113.144 54.6415 114.811 54.6415C115.784 54.6415 116.544 54.9281 117.091 55.5015C117.651 56.0615 117.931 56.8881 117.931 57.9815V63.3615L119.611 63.7615V64.5015H114.611V63.7615L116.051 63.3215V58.4815C116.051 57.3881 115.904 56.6415 115.611 56.2415C115.318 55.8281 114.878 55.6215 114.291 55.6215C112.398 55.6215 111.451 57.3681 111.451 60.8615V63.3415L113.151 63.7615V64.5015H108.071V63.7615L109.551 63.3415V58.8015C109.551 57.6415 109.424 56.8215 109.171 56.3415C108.918 55.8481 108.491 55.6015 107.891 55.6015C107.291 55.6015 106.798 55.7548 106.411 56.0615C106.024 56.3548 105.731 56.7548 105.531 57.2615C105.144 58.1948 104.951 59.3215 104.951 60.6415V63.3215L106.511 63.7615V64.5015H101.471V63.7615L103.051 63.3415V55.7815L101.531 55.5215V54.8015ZM131.406 64.5015H127.886V62.4815C127.26 63.9481 126.16 64.6815 124.586 64.6815C123.533 64.6815 122.733 64.4548 122.186 64.0015C121.64 63.5348 121.366 62.8881 121.366 62.0615C121.366 60.8881 121.88 60.0481 122.906 59.5415C123.946 59.0215 125.593 58.7415 127.846 58.7015V57.8415C127.846 56.8948 127.653 56.2548 127.266 55.9215C126.88 55.5748 126.306 55.4015 125.546 55.4015C124.786 55.4015 124.126 55.5748 123.566 55.9215L122.906 57.9015H122.166V55.6415C122.5 55.3615 122.96 55.1281 123.546 54.9415C124.133 54.7415 124.773 54.6415 125.466 54.6415C126.88 54.6415 127.94 54.9148 128.646 55.4615C129.366 55.9948 129.726 56.9481 129.726 58.3215V63.3015L131.406 63.7615V64.5015ZM125.106 63.8415C125.96 63.8415 126.626 63.5148 127.106 62.8615C127.6 62.1948 127.846 61.0415 127.846 59.4015C125.553 59.4015 124.153 59.7548 123.646 60.4615C123.406 60.7948 123.286 61.2881 123.286 61.9415C123.286 62.5948 123.426 63.0748 123.706 63.3815C124 63.6881 124.466 63.8415 125.106 63.8415ZM133.547 54.7815H136.787V57.6015C137.32 55.6281 138.507 54.6415 140.347 54.6415C141.427 54.6415 142.227 54.9748 142.747 55.6415C143.267 56.2948 143.527 57.2015 143.527 58.3615V63.3215L145.067 63.7615V64.5015H140.327V63.7615L141.667 63.3615V58.6015C141.667 57.5215 141.52 56.7481 141.227 56.2815C140.947 55.8148 140.5 55.5815 139.887 55.5815C138.94 55.5815 138.207 56.0348 137.687 56.9415C137.18 57.8348 136.927 59.1815 136.927 60.9815V63.3615L138.327 63.7615V64.5015H133.547V63.7615L135.027 63.3415V55.7815L133.547 55.5015V54.7815ZM153.402 49.5015H159.342C163.062 49.5015 164.922 50.7215 164.922 53.1615C164.922 54.1481 164.608 54.9348 163.982 55.5215C163.355 56.1081 162.355 56.5015 160.982 56.7015C163.875 56.9548 165.322 58.2281 165.322 60.5215C165.322 61.5881 164.955 62.4815 164.222 63.2015C163.688 63.7348 163.048 64.0881 162.302 64.2615C161.555 64.4215 160.455 64.5015 159.002 64.5015H153.402V63.7615L155.322 63.3215V50.7015L153.402 50.2415V49.5015ZM157.402 63.7015H158.982C160.408 63.7015 161.442 63.4481 162.082 62.9415C162.722 62.4348 163.042 61.6148 163.042 60.4815C163.042 59.3481 162.728 58.5215 162.102 58.0015C161.488 57.4681 160.508 57.2015 159.162 57.2015H157.402V63.7015ZM157.402 56.3615H159.002C161.455 56.3615 162.682 55.3081 162.682 53.2015C162.682 52.0015 162.268 51.2081 161.442 50.8215C160.735 50.4748 159.755 50.3015 158.502 50.3015H157.402V56.3615ZM166.953 54.8015H170.273V60.7815C170.273 61.8348 170.407 62.5815 170.673 63.0215C170.953 63.4615 171.407 63.6815 172.033 63.6815C172.967 63.6815 173.7 63.2415 174.233 62.3615C174.767 61.4815 175.033 60.1348 175.033 58.3215V55.8015L173.573 55.5415V54.8015H176.893V63.3015L178.473 63.7615V64.5015H175.153V61.8015C174.807 62.7481 174.32 63.4748 173.693 63.9815C173.08 64.4748 172.407 64.7215 171.673 64.7215C169.487 64.7215 168.393 63.5215 168.393 61.1215V55.8015L166.953 55.5415V54.8015ZM186.029 49.5015H189.389V63.3415L191.089 63.7615V64.5015H187.609V62.2215C187.129 63.8748 185.989 64.7015 184.189 64.7015C182.935 64.7015 181.922 64.2681 181.149 63.4015C180.389 62.5348 180.009 61.3081 180.009 59.7215C180.009 58.1215 180.389 56.8748 181.149 55.9815C181.922 55.0881 182.929 54.6415 184.169 54.6415C185.062 54.6415 185.802 54.8548 186.389 55.2815C186.989 55.7081 187.369 56.2681 187.529 56.9615V50.5215L186.029 50.2215V49.5015ZM184.509 55.5415C182.855 55.5415 182.029 56.9215 182.029 59.6815C182.029 62.4281 182.862 63.8015 184.529 63.8015C185.422 63.8015 186.155 63.4281 186.729 62.6815C187.315 61.9348 187.609 60.9348 187.609 59.6815C187.609 58.4281 187.315 57.4281 186.729 56.6815C186.155 55.9215 185.415 55.5415 184.509 55.5415ZM198.509 49.5015H201.869V63.3415L203.569 63.7615V64.5015H200.089V62.2215C199.609 63.8748 198.469 64.7015 196.669 64.7015C195.416 64.7015 194.402 64.2681 193.629 63.4015C192.869 62.5348 192.489 61.3081 192.489 59.7215C192.489 58.1215 192.869 56.8748 193.629 55.9815C194.402 55.0881 195.409 54.6415 196.649 54.6415C197.542 54.6415 198.282 54.8548 198.869 55.2815C199.469 55.7081 199.849 56.2681 200.009 56.9615V50.5215L198.509 50.2215V49.5015ZM196.989 55.5415C195.336 55.5415 194.509 56.9215 194.509 59.6815C194.509 62.4281 195.342 63.8015 197.009 63.8015C197.902 63.8015 198.636 63.4281 199.209 62.6815C199.796 61.9348 200.089 60.9348 200.089 59.6815C200.089 58.4281 199.796 57.4281 199.209 56.6815C198.636 55.9215 197.896 55.5415 196.989 55.5415ZM211.31 54.7815H215.51V55.5415L213.93 55.7815L209.77 66.0215C209.196 67.3815 208.723 68.2681 208.35 68.6815C207.976 69.0948 207.363 69.3015 206.51 69.3015H205.63V66.3815H206.37L206.87 68.1815C207.283 68.1548 207.583 68.0415 207.77 67.8415C207.956 67.6548 208.096 67.5081 208.19 67.4015C208.283 67.2948 208.39 67.1015 208.51 66.8215C208.643 66.5548 208.736 66.3481 208.79 66.2015C208.856 66.0548 208.963 65.7881 209.11 65.4015C209.256 65.0148 209.37 64.7281 209.45 64.5415L205.63 55.9015L203.97 55.5415V54.8015H209.05V55.5415L207.69 55.8215L210.43 62.3015L212.85 55.8015L211.31 55.5415V54.7815Z" fill="white"/>
<defs>
<clipPath id="clip0_29_1014">
<rect width="42" height="42" fill="white" transform="translate(76 0.498535)"/>
</clipPath>
</defs>
</svg>
