<svg width="216" height="72" viewBox="0 0 216 72" fill="none" xmlns="http://www.w3.org/2000/svg">
<g clip-path="url(#clip0_99_172)">
<path d="M118 12.8708C118 11.7503 117.088 10.8385 115.968 10.8385C115.735 10.8385 115.514 10.886 115.305 10.9584L112.27 7.16427C112.464 6.85334 112.581 6.48957 112.581 6.09668C112.581 4.97624 111.669 4.06445 110.549 4.06445C109.979 4.06445 109.465 4.30154 109.096 4.67954L103.756 2.21513C103.762 2.15416 103.774 2.09522 103.774 2.03223C103.774 0.911792 102.863 0 101.742 0C100.86 0 100.115 0.568346 99.8347 1.35482H92.1339C91.8534 0.568346 91.1083 0 90.2263 0C89.1059 0 88.1941 0.911792 88.1941 2.03223C88.1941 2.11622 88.209 2.19684 88.2191 2.2788L84.8592 3.95877C84.4934 3.60652 83.9989 3.38704 83.4522 3.38704C82.3318 3.38704 81.42 4.29883 81.42 5.41927C81.42 5.81216 81.5372 6.17593 81.7309 6.48686L78.6955 10.281C78.4868 10.2085 78.266 10.1611 78.033 10.1611C76.9125 10.1611 76.0007 11.0729 76.0007 12.1934C76.0007 13.0753 76.5691 13.8205 77.3555 14.1009V18.4153C76.5691 18.6951 76.0007 19.4403 76.0007 20.3223C76.0007 21.4427 76.9125 22.3545 78.033 22.3545C78.7856 22.3545 79.4359 21.9385 79.7874 21.3296L83.4854 22.0015C83.6419 22.9675 84.4751 23.7093 85.4845 23.7093C85.5115 23.7093 85.5373 23.7025 85.5644 23.7012L86.8569 26.9331C86.4342 27.3057 86.1619 27.8449 86.1619 28.4512C86.1619 29.5716 87.0737 30.4834 88.1941 30.4834C88.8756 30.4834 89.4764 30.1433 89.8449 29.6278L95.6584 31.2888C95.7106 32.1139 96.2525 32.8015 97.0004 33.0684V38.0602C96.2139 38.3406 95.6456 39.0858 95.6456 39.9678C95.6456 41.0882 96.5574 42 97.6778 42C98.7982 42 99.71 41.0882 99.71 39.9678C99.71 39.0858 99.1417 38.3406 98.3552 38.0602V33.0684C99.1417 32.7879 99.71 32.0428 99.71 31.1608C99.71 30.5118 99.3984 29.9394 98.9236 29.5668L99.7324 27.1397L105.811 29.1658C105.827 30.0309 106.387 30.7591 107.162 31.0355V38.0595C106.375 38.34 105.807 39.0851 105.807 39.9671C105.807 41.0875 106.718 41.9993 107.839 41.9993C108.959 41.9993 109.871 41.0875 109.871 39.9671C109.871 39.0851 109.303 38.34 108.516 38.0595V31.0361C109.303 30.7557 109.871 30.0105 109.871 29.1286C109.871 28.8813 109.82 28.6469 109.739 28.4274L114.937 24.0961C115.24 24.2763 115.59 24.3867 115.968 24.3867C117.088 24.3867 118 23.4749 118 22.3545C118 21.4725 117.432 20.7273 116.645 20.4469V14.7777C117.432 14.4979 118 13.7527 118 12.8708ZM110.549 5.41927C110.922 5.41927 111.226 5.72275 111.226 6.09668C111.226 6.47061 110.922 6.77408 110.549 6.77408C110.175 6.77408 109.871 6.47061 109.871 6.09668C109.871 5.72275 110.175 5.41927 110.549 5.41927ZM109.585 7.87487C109.873 8.03203 110.198 8.1289 110.549 8.1289C110.782 8.1289 111.002 8.08148 111.21 8.009L114.246 11.8038C114.053 12.1148 113.936 12.4779 113.936 12.8708C113.936 12.9798 113.951 13.0848 113.968 13.1898L109.169 15.8073L105.675 12.8951C105.756 12.675 105.807 12.4406 105.807 12.1934C105.807 11.9183 105.75 11.6555 105.651 11.4164L109.585 7.87487ZM101.065 18.9674C100.752 18.9674 100.459 19.044 100.194 19.1713L97.3242 16.3012L102.391 13.6735C102.755 14.0135 103.239 14.2256 103.774 14.2256C104.152 14.2256 104.502 14.1152 104.805 13.935L107.89 16.5051L102.414 19.4918C102.055 19.1693 101.585 18.9674 101.065 18.9674ZM101.742 20.9997C101.742 21.3736 101.438 21.6771 101.065 21.6771C100.692 21.6771 100.387 21.3736 100.387 20.9997C100.387 20.6257 100.692 20.3223 101.065 20.3223C101.438 20.3223 101.742 20.6257 101.742 20.9997ZM91.5005 13.5394L92.6379 17.2041L86.8677 20.1963C86.6259 19.9707 86.3299 19.8067 86.0006 19.7194L85.0617 12.5199L89.7034 12.2875C89.998 13.0015 90.689 13.5068 91.5005 13.5394ZM90.9037 11.5159C90.9037 11.142 91.2079 10.8385 91.5811 10.8385C91.9544 10.8385 92.2585 11.142 92.2585 11.5159C92.2585 11.8899 91.9544 12.1934 91.5811 12.1934C91.2079 12.1934 90.9037 11.8899 90.9037 11.5159ZM93.045 18.5197L94.7629 24.0561L87.5126 21.6391C87.5113 21.5578 87.4991 21.4793 87.4882 21.4007L93.045 18.5197ZM93.0403 13.9336L95.0576 15.9503L93.8593 16.5714L93.0403 13.9336ZM93.4101 12.3864C93.5368 12.1215 93.6134 11.8289 93.6134 11.5159C93.6134 11.2274 93.551 10.9537 93.4426 10.7051L96.659 7.70281L101.844 11.5911C101.784 11.7835 101.742 11.9827 101.742 12.1934C101.742 12.2882 101.758 12.3783 101.77 12.4697L96.3189 15.2959L93.4101 12.3864ZM103.097 12.1934C103.097 11.8194 103.401 11.5159 103.774 11.5159C104.148 11.5159 104.452 11.8194 104.452 12.1934C104.452 12.5673 104.148 12.8708 103.774 12.8708C103.401 12.8708 103.097 12.5673 103.097 12.1934ZM109.009 17.4378L113.863 21.4827L103.346 20.5268L109.009 17.4378ZM101.742 1.35482C102.116 1.35482 102.42 1.6583 102.42 2.03223C102.42 2.40615 102.116 2.70963 101.742 2.70963C101.369 2.70963 101.065 2.40615 101.065 2.03223C101.065 1.6583 101.369 1.35482 101.742 1.35482ZM100.811 3.82804C101.091 3.97368 101.405 4.06445 101.742 4.06445C102.312 4.06445 102.825 3.82736 103.195 3.44869L108.535 5.9131C108.529 5.97474 108.516 6.03368 108.516 6.09668C108.516 6.37238 108.573 6.63454 108.672 6.87434L104.738 10.4152C104.45 10.258 104.125 10.1611 103.774 10.1611C103.359 10.1611 102.972 10.2878 102.649 10.5032L97.6649 6.7646L100.811 3.82804ZM99.8347 2.70963C99.8509 2.75367 99.8624 2.79973 99.8807 2.84241L96.5635 5.93816L92.2585 2.70963H99.8347ZM90.2263 1.35482C90.5996 1.35482 90.9037 1.6583 90.9037 2.03223C90.9037 2.40615 90.5996 2.70963 90.2263 2.70963C89.8531 2.70963 89.5489 2.40615 89.5489 2.03223C89.5489 1.6583 89.8531 1.35482 90.2263 1.35482ZM85.4845 5.41927C85.4845 5.33527 85.4695 5.25466 85.4594 5.17337L88.8193 3.4934C89.1851 3.84497 89.6796 4.06445 90.2263 4.06445C90.6422 4.06445 91.029 3.93778 91.3515 3.72236L95.5575 6.87705L92.5119 9.71946C92.2321 9.57381 91.9185 9.48372 91.5811 9.48372C90.6639 9.48372 89.8957 10.0981 89.6437 10.9341L84.8856 11.1718L84.3708 7.22185C85.0286 6.88518 85.4845 6.20777 85.4845 5.41927ZM83.4522 4.74186C83.8255 4.74186 84.1296 5.04534 84.1296 5.41927C84.1296 5.7932 83.8255 6.09668 83.4522 6.09668C83.079 6.09668 82.7748 5.7932 82.7748 5.41927C82.7748 5.04534 83.079 4.74186 83.4522 4.74186ZM82.7897 7.33159C82.8683 7.35869 82.9455 7.38782 83.0275 7.40543L83.5274 11.2402L79.9107 11.4211C79.8681 11.3175 79.8132 11.2206 79.7543 11.1258L82.7897 7.33159ZM78.033 11.5159C78.4062 11.5159 78.7104 11.8194 78.7104 12.1934C78.7104 12.5673 78.4062 12.8708 78.033 12.8708C77.6597 12.8708 77.3555 12.5673 77.3555 12.1934C77.3555 11.8194 77.6597 11.5159 78.033 11.5159ZM78.033 20.9997C77.6597 20.9997 77.3555 20.6962 77.3555 20.3223C77.3555 19.9483 77.6597 19.6448 78.033 19.6448C78.4062 19.6448 78.7104 19.9483 78.7104 20.3223C78.7104 20.6962 78.4062 20.9997 78.033 20.9997ZM83.73 20.6698L80.0327 19.9978C79.9128 19.2601 79.3979 18.6599 78.7104 18.4147V14.1003C79.3153 13.8842 79.7841 13.393 79.9703 12.7746L83.7042 12.5876L84.6485 19.8291C84.2597 20.0059 83.942 20.3019 83.73 20.6698ZM85.4845 22.3545C85.1112 22.3545 84.807 22.051 84.807 21.6771C84.807 21.3031 85.1112 20.9997 85.4845 20.9997C85.8577 20.9997 86.1619 21.3031 86.1619 21.6771C86.1619 22.051 85.8577 22.3545 85.4845 22.3545ZM88.1941 29.1286C87.8208 29.1286 87.5167 28.8251 87.5167 28.4512C87.5167 28.0772 87.8208 27.7737 88.1941 27.7737C88.5673 27.7737 88.8715 28.0772 88.8715 28.4512C88.8715 28.8251 88.5673 29.1286 88.1941 29.1286ZM96.0276 29.9841L90.2141 28.3231C90.1457 27.263 89.2712 26.4189 88.1941 26.4189C88.167 26.4189 88.1412 26.4257 88.1142 26.4271L86.8217 23.1951C86.9158 23.1118 87.0012 23.021 87.0791 22.9221L95.2581 25.6487L96.4659 29.5397C96.2986 29.6657 96.1496 29.8141 96.0276 29.9841ZM97.6778 40.6445C97.3046 40.6445 97.0004 40.341 97.0004 39.9671C97.0004 39.5932 97.3046 39.2897 97.6778 39.2897C98.0511 39.2897 98.3552 39.5932 98.3552 39.9671C98.3552 40.341 98.0511 40.6445 97.6778 40.6445ZM97.6778 31.8382C97.3046 31.8382 97.0004 31.5347 97.0004 31.1608C97.0004 30.7869 97.3046 30.4834 97.6778 30.4834C98.0511 30.4834 98.3552 30.7869 98.3552 31.1608C98.3552 31.5347 98.0511 31.8382 97.6778 31.8382ZM97.7008 28.9497L96.8398 26.1764L98.4467 26.7122L97.7008 28.9497ZM98.8755 25.4265L96.346 24.5832L94.2677 17.8863L96.0629 16.9555L99.2365 20.1292C99.1092 20.3941 99.0326 20.6867 99.0326 20.9997C99.0326 21.6486 99.3442 22.2217 99.8198 22.5936L98.8755 25.4265ZM107.839 40.6445C107.466 40.6445 107.162 40.341 107.162 39.9671C107.162 39.5932 107.466 39.2897 107.839 39.2897C108.212 39.2897 108.516 39.5932 108.516 39.9671C108.516 40.341 108.212 40.6445 107.839 40.6445ZM107.839 29.806C107.466 29.806 107.162 29.5025 107.162 29.1286C107.162 28.7546 107.466 28.4512 107.839 28.4512C108.212 28.4512 108.516 28.7546 108.516 29.1286C108.516 29.5025 108.212 29.806 107.839 29.806ZM108.87 27.3863C108.566 27.2068 108.217 27.0963 107.839 27.0963C107.19 27.0963 106.617 27.4079 106.245 27.8835L100.161 25.8553L101.103 23.0278C101.903 23.0129 102.588 22.5333 102.905 21.8471L114.005 22.8558C114.023 22.9235 114.043 22.9899 114.068 23.0549L108.87 27.3863ZM110.289 16.7394L114.618 14.378C114.813 14.5528 115.04 14.6882 115.291 14.7777V20.4469C115.166 20.4916 115.049 20.5465 114.937 20.6129L110.289 16.7394ZM115.968 23.0319C115.595 23.0319 115.29 22.7284 115.29 22.3545C115.29 21.9805 115.595 21.6771 115.968 21.6771C116.341 21.6771 116.645 21.9805 116.645 22.3545C116.645 22.7284 116.341 23.0319 115.968 23.0319ZM115.968 13.5482C115.595 13.5482 115.29 13.2447 115.29 12.8708C115.29 12.4968 115.595 12.1934 115.968 12.1934C116.341 12.1934 116.645 12.4968 116.645 12.8708C116.645 13.2447 116.341 13.5482 115.968 13.5482Z" fill="black"/>
<path d="M78.71 0H77.3552V1.35482H78.71V0Z" fill="black"/>
<path d="M78.71 2.70963H77.3552V4.06444H78.71V2.70963Z" fill="black"/>
<path d="M80.0648 1.35483H78.71V2.70964H80.0648V1.35483Z" fill="black"/>
<path d="M77.3553 1.35483H76.0005V2.70964H77.3553V1.35483Z" fill="black"/>
<path d="M112.58 31.1608H111.226V32.5156H112.58V31.1608Z" fill="black"/>
<path d="M112.58 33.8704H111.226V35.2252H112.58V33.8704Z" fill="black"/>
<path d="M113.935 32.5156H112.58V33.8704H113.935V32.5156Z" fill="black"/>
<path d="M111.226 32.5156H109.871V33.8704H111.226V32.5156Z" fill="black"/>
<path d="M116.645 2.70963H115.29V4.06444H116.645V2.70963Z" fill="black"/>
<path d="M116.645 5.41928H115.29V6.7741H116.645V5.41928Z" fill="black"/>
<path d="M118 4.06445H116.645V5.41927H118V4.06445Z" fill="black"/>
<path d="M115.29 4.06445H113.935V5.41927H115.29V4.06445Z" fill="black"/>
<path d="M85.4842 32.5156H84.1294V33.8704H85.4842V32.5156Z" fill="black"/>
<path d="M85.4842 35.2253H84.1294V36.5801H85.4842V35.2253Z" fill="black"/>
<path d="M86.8389 33.8704H85.4841V35.2252H86.8389V33.8704Z" fill="black"/>
<path d="M84.1292 33.8704H82.7744V35.2252H84.1292V33.8704Z" fill="black"/>
<path d="M81.4198 25.0641H80.0649V26.4189H81.4198V25.0641Z" fill="black"/>
<path d="M81.4198 27.7737H80.0649V29.1286H81.4198V27.7737Z" fill="black"/>
<path d="M82.7745 26.4189H81.4197V27.7738H82.7745V26.4189Z" fill="black"/>
<path d="M80.0648 26.4189H78.71V27.7738H80.0648V26.4189Z" fill="black"/>
</g>
<path d="M1.8 49.0029H12.82V52.5829H11.78L11 49.8629H5.88V55.8429H9.74L10.28 54.1029H11.02V58.2429H10.28L9.74 56.7229H5.88V63.1429H11.36L12.14 60.4429H13.2V64.0029H1.8V63.2629L3.78 62.8029V50.2229L1.8 49.7429V49.0029ZM14.6039 54.3029H19.6839V55.0429L18.4639 55.2829L20.4239 58.1229L22.7239 55.2629L21.3039 55.0429V54.3029H25.3839V55.0429L23.9439 55.3029L20.9439 58.7229L24.0639 62.9229L25.6039 63.2429V64.0029H20.5239V63.2429L21.8039 62.9229L19.7439 59.9429L17.4239 62.9629L18.8239 63.2429V64.0029H14.6239V63.2429L16.1639 62.9229L19.1639 59.3429L16.1839 55.3029L14.6039 55.0429V54.3029ZM37.0314 64.0029H33.5114V61.9829C32.8847 63.4496 31.7847 64.1829 30.2114 64.1829C29.1581 64.1829 28.3581 63.9563 27.8114 63.5029C27.2647 63.0363 26.9914 62.3896 26.9914 61.5629C26.9914 60.3896 27.5047 59.5496 28.5314 59.0429C29.5714 58.5229 31.2181 58.2429 33.4714 58.2029V57.3429C33.4714 56.3963 33.2781 55.7563 32.8914 55.4229C32.5047 55.0763 31.9314 54.9029 31.1714 54.9029C30.4114 54.9029 29.7514 55.0763 29.1914 55.4229L28.5314 57.4029H27.7914V55.1429C28.1247 54.8629 28.5847 54.6296 29.1714 54.4429C29.7581 54.2429 30.3981 54.1429 31.0914 54.1429C32.5047 54.1429 33.5647 54.4163 34.2714 54.9629C34.9914 55.4963 35.3514 56.4496 35.3514 57.8229V62.8029L37.0314 63.2629V64.0029ZM30.7314 63.3429C31.5847 63.3429 32.2514 63.0163 32.7314 62.3629C33.2247 61.6963 33.4714 60.5429 33.4714 58.9029C31.1781 58.9029 29.7781 59.2563 29.2714 59.9629C29.0314 60.2963 28.9114 60.7896 28.9114 61.4429C28.9114 62.0963 29.0514 62.5763 29.3314 62.8829C29.6247 63.1896 30.0914 63.3429 30.7314 63.3429ZM38.992 54.3029H42.232V56.9029C42.832 55.0629 44.0387 54.1429 45.852 54.1429C46.6787 54.1429 47.3387 54.3363 47.832 54.7229C48.3254 55.1096 48.672 55.7563 48.872 56.6629C49.472 54.9829 50.6054 54.1429 52.272 54.1429C53.2454 54.1429 54.0054 54.4296 54.552 55.0029C55.112 55.5629 55.392 56.3896 55.392 57.4829V62.8629L57.072 63.2629V64.0029H52.072V63.2629L53.512 62.8229V57.9829C53.512 56.8896 53.3654 56.1429 53.072 55.7429C52.7787 55.3296 52.3387 55.1229 51.752 55.1229C49.8587 55.1229 48.912 56.8696 48.912 60.3629V62.8429L50.612 63.2629V64.0029H45.532V63.2629L47.012 62.8429V58.3029C47.012 57.1429 46.8854 56.3229 46.632 55.8429C46.3787 55.3496 45.952 55.1029 45.352 55.1029C44.752 55.1029 44.2587 55.2563 43.872 55.5629C43.4854 55.8563 43.192 56.2563 42.992 56.7629C42.6054 57.6963 42.412 58.8229 42.412 60.1429V62.8229L43.972 63.2629V64.0029H38.932V63.2629L40.512 62.8429V55.2829L38.992 55.0229V54.3029ZM73.5123 57.5229H79.6923V58.2629L77.7123 58.7229V63.2829C77.0323 63.5896 76.159 63.8296 75.0923 64.0029C74.0257 64.1763 73.0457 64.2629 72.1523 64.2629C69.819 64.2629 68.019 63.5763 66.7523 62.2029C65.4857 60.8296 64.8523 58.9496 64.8523 56.5629C64.8523 54.1763 65.4723 52.2696 66.7123 50.8429C67.9523 49.4029 69.7057 48.6829 71.9723 48.6829C72.8923 48.6829 73.8457 48.8096 74.8323 49.0629C75.819 49.3029 76.6323 49.7229 77.2723 50.3229V53.7029H76.2323L75.2523 50.3829C74.6657 49.7563 73.559 49.4429 71.9323 49.4429C70.3057 49.4429 69.1057 50.0496 68.3323 51.2629C67.559 52.4763 67.1723 54.1896 67.1723 56.4029C67.1723 61.1096 68.819 63.4629 72.1123 63.4629C73.1523 63.4629 74.319 63.3029 75.6123 62.9829V58.7229L73.5123 58.2629V57.5229ZM89.3475 60.6229V62.9029C88.5875 63.7696 87.3608 64.2029 85.6675 64.2029C83.9875 64.2029 82.7408 63.7629 81.9275 62.8829C81.1142 61.9896 80.7075 60.7563 80.7075 59.1829C80.7075 57.6096 81.1342 56.3763 81.9875 55.4829C82.8542 54.5763 84.0142 54.1229 85.4675 54.1229C86.3342 54.1229 87.0542 54.2829 87.6275 54.6029C88.2142 54.9229 88.6342 55.3496 88.8875 55.8829C89.2875 56.7629 89.4875 57.6896 89.4875 58.6629H82.7075C82.7075 60.1696 82.8808 61.3163 83.2275 62.1029C83.6275 62.9963 84.4142 63.4429 85.5875 63.4429C86.0008 63.4429 86.3942 63.3896 86.7675 63.2829C87.1542 63.1629 87.4342 63.0496 87.6075 62.9429C87.7808 62.8363 87.8675 62.7696 87.8675 62.7429L88.6075 60.6229H89.3475ZM85.4275 54.9029C84.2942 54.9029 83.5208 55.4229 83.1075 56.4629C82.9075 56.9296 82.7875 57.4429 82.7475 58.0029H87.7475C87.7475 55.9363 86.9742 54.9029 85.4275 54.9029ZM91.9031 54.3029H95.2231V57.1429C95.4898 56.3429 95.9031 55.6763 96.4631 55.1429C97.0231 54.5963 97.7031 54.3229 98.5031 54.3229C98.9965 54.3229 99.5898 54.5029 100.283 54.8629V57.2629H99.5031L98.8831 55.6229C98.6298 55.4896 98.3431 55.4229 98.0231 55.4229C97.4365 55.4229 96.8431 55.7696 96.2431 56.4629C95.6565 57.1429 95.3631 57.8763 95.3631 58.6629V62.8429L96.8431 63.2629V64.0029H91.9431V63.2629L93.4631 62.8429V55.3029L91.9031 55.0229V54.3029ZM101.531 54.3029H104.771V56.9029C105.371 55.0629 106.578 54.1429 108.391 54.1429C109.218 54.1429 109.878 54.3363 110.371 54.7229C110.864 55.1096 111.211 55.7563 111.411 56.6629C112.011 54.9829 113.144 54.1429 114.811 54.1429C115.784 54.1429 116.544 54.4296 117.091 55.0029C117.651 55.5629 117.931 56.3896 117.931 57.4829V62.8629L119.611 63.2629V64.0029H114.611V63.2629L116.051 62.8229V57.9829C116.051 56.8896 115.904 56.1429 115.611 55.7429C115.318 55.3296 114.878 55.1229 114.291 55.1229C112.398 55.1229 111.451 56.8696 111.451 60.3629V62.8429L113.151 63.2629V64.0029H108.071V63.2629L109.551 62.8429V58.3029C109.551 57.1429 109.424 56.3229 109.171 55.8429C108.918 55.3496 108.491 55.1029 107.891 55.1029C107.291 55.1029 106.798 55.2563 106.411 55.5629C106.024 55.8563 105.731 56.2563 105.531 56.7629C105.144 57.6963 104.951 58.8229 104.951 60.1429V62.8229L106.511 63.2629V64.0029H101.471V63.2629L103.051 62.8429V55.2829L101.531 55.0229V54.3029ZM131.406 64.0029H127.886V61.9829C127.26 63.4496 126.16 64.1829 124.586 64.1829C123.533 64.1829 122.733 63.9563 122.186 63.5029C121.64 63.0363 121.366 62.3896 121.366 61.5629C121.366 60.3896 121.88 59.5496 122.906 59.0429C123.946 58.5229 125.593 58.2429 127.846 58.2029V57.3429C127.846 56.3963 127.653 55.7563 127.266 55.4229C126.88 55.0763 126.306 54.9029 125.546 54.9029C124.786 54.9029 124.126 55.0763 123.566 55.4229L122.906 57.4029H122.166V55.1429C122.5 54.8629 122.96 54.6296 123.546 54.4429C124.133 54.2429 124.773 54.1429 125.466 54.1429C126.88 54.1429 127.94 54.4163 128.646 54.9629C129.366 55.4963 129.726 56.4496 129.726 57.8229V62.8029L131.406 63.2629V64.0029ZM125.106 63.3429C125.96 63.3429 126.626 63.0163 127.106 62.3629C127.6 61.6963 127.846 60.5429 127.846 58.9029C125.553 58.9029 124.153 59.2563 123.646 59.9629C123.406 60.2963 123.286 60.7896 123.286 61.4429C123.286 62.0963 123.426 62.5763 123.706 62.8829C124 63.1896 124.466 63.3429 125.106 63.3429ZM133.547 54.2829H136.787V57.1029C137.32 55.1296 138.507 54.1429 140.347 54.1429C141.427 54.1429 142.227 54.4763 142.747 55.1429C143.267 55.7963 143.527 56.7029 143.527 57.8629V62.8229L145.067 63.2629V64.0029H140.327V63.2629L141.667 62.8629V58.1029C141.667 57.0229 141.52 56.2496 141.227 55.7829C140.947 55.3163 140.5 55.0829 139.887 55.0829C138.94 55.0829 138.207 55.5363 137.687 56.4429C137.18 57.3363 136.927 58.6829 136.927 60.4829V62.8629L138.327 63.2629V64.0029H133.547V63.2629L135.027 62.8429V55.2829L133.547 55.0029V54.2829ZM153.402 49.0029H159.342C163.062 49.0029 164.922 50.2229 164.922 52.6629C164.922 53.6496 164.608 54.4363 163.982 55.0229C163.355 55.6096 162.355 56.0029 160.982 56.2029C163.875 56.4563 165.322 57.7296 165.322 60.0229C165.322 61.0896 164.955 61.9829 164.222 62.7029C163.688 63.2363 163.048 63.5896 162.302 63.7629C161.555 63.9229 160.455 64.0029 159.002 64.0029H153.402V63.2629L155.322 62.8229V50.2029L153.402 49.7429V49.0029ZM157.402 63.2029H158.982C160.408 63.2029 161.442 62.9496 162.082 62.4429C162.722 61.9363 163.042 61.1163 163.042 59.9829C163.042 58.8496 162.728 58.0229 162.102 57.5029C161.488 56.9696 160.508 56.7029 159.162 56.7029H157.402V63.2029ZM157.402 55.8629H159.002C161.455 55.8629 162.682 54.8096 162.682 52.7029C162.682 51.5029 162.268 50.7096 161.442 50.3229C160.735 49.9763 159.755 49.8029 158.502 49.8029H157.402V55.8629ZM166.953 54.3029H170.273V60.2829C170.273 61.3363 170.407 62.0829 170.673 62.5229C170.953 62.9629 171.407 63.1829 172.033 63.1829C172.967 63.1829 173.7 62.7429 174.233 61.8629C174.767 60.9829 175.033 59.6363 175.033 57.8229V55.3029L173.573 55.0429V54.3029H176.893V62.8029L178.473 63.2629V64.0029H175.153V61.3029C174.807 62.2496 174.32 62.9763 173.693 63.4829C173.08 63.9763 172.407 64.2229 171.673 64.2229C169.487 64.2229 168.393 63.0229 168.393 60.6229V55.3029L166.953 55.0429V54.3029ZM186.029 49.0029H189.389V62.8429L191.089 63.2629V64.0029H187.609V61.7229C187.129 63.3763 185.989 64.2029 184.189 64.2029C182.935 64.2029 181.922 63.7696 181.149 62.9029C180.389 62.0363 180.009 60.8096 180.009 59.2229C180.009 57.6229 180.389 56.3763 181.149 55.4829C181.922 54.5896 182.929 54.1429 184.169 54.1429C185.062 54.1429 185.802 54.3563 186.389 54.7829C186.989 55.2096 187.369 55.7696 187.529 56.4629V50.0229L186.029 49.7229V49.0029ZM184.509 55.0429C182.855 55.0429 182.029 56.4229 182.029 59.1829C182.029 61.9296 182.862 63.3029 184.529 63.3029C185.422 63.3029 186.155 62.9296 186.729 62.1829C187.315 61.4363 187.609 60.4363 187.609 59.1829C187.609 57.9296 187.315 56.9296 186.729 56.1829C186.155 55.4229 185.415 55.0429 184.509 55.0429ZM198.509 49.0029H201.869V62.8429L203.569 63.2629V64.0029H200.089V61.7229C199.609 63.3763 198.469 64.2029 196.669 64.2029C195.416 64.2029 194.402 63.7696 193.629 62.9029C192.869 62.0363 192.489 60.8096 192.489 59.2229C192.489 57.6229 192.869 56.3763 193.629 55.4829C194.402 54.5896 195.409 54.1429 196.649 54.1429C197.542 54.1429 198.282 54.3563 198.869 54.7829C199.469 55.2096 199.849 55.7696 200.009 56.4629V50.0229L198.509 49.7229V49.0029ZM196.989 55.0429C195.336 55.0429 194.509 56.4229 194.509 59.1829C194.509 61.9296 195.342 63.3029 197.009 63.3029C197.902 63.3029 198.636 62.9296 199.209 62.1829C199.796 61.4363 200.089 60.4363 200.089 59.1829C200.089 57.9296 199.796 56.9296 199.209 56.1829C198.636 55.4229 197.896 55.0429 196.989 55.0429ZM211.31 54.2829H215.51V55.0429L213.93 55.2829L209.77 65.5229C209.196 66.8829 208.723 67.7696 208.35 68.1829C207.976 68.5963 207.363 68.8029 206.51 68.8029H205.63V65.8829H206.37L206.87 67.6829C207.283 67.6563 207.583 67.5429 207.77 67.3429C207.956 67.1563 208.096 67.0096 208.19 66.9029C208.283 66.7963 208.39 66.6029 208.51 66.3229C208.643 66.0563 208.736 65.8496 208.79 65.7029C208.856 65.5563 208.963 65.2896 209.11 64.9029C209.256 64.5163 209.37 64.2296 209.45 64.0429L205.63 55.4029L203.97 55.0429V54.3029H209.05V55.0429L207.69 55.3229L210.43 61.8029L212.85 55.3029L211.31 55.0429V54.2829Z" fill="black"/>
<defs>
<clipPath id="clip0_99_172">
<rect width="42" height="42" fill="white" transform="translate(76)"/>
</clipPath>
</defs>
</svg>
